<svg xmlns="http://www.w3.org/2000/svg" width="40" height="40" version="1.1" viewBox="0 0 40 40">
  <g fill="none" fill-rule="evenodd" stroke="none" stroke-width="1">
    <circle cx="20" cy="20" r="20" fill="#2B5AFF"/>
    <path fill="#fff" fill-rule="nonzero" d="M27.1017236,11.5045591 L9.25912734,20.8617554 C8.8513167,21.0756236 8.6940953,21.5795939 8.90796352,21.9874045 C9.01156433,22.1849538 9.19000333,22.3327527 9.40338812,22.3977588 L16.4001557,24.5292712 C16.7912191,24.6484058 17.2161169,24.5432997 17.5065396,24.2555875 L23.348793,18.4678576 L23.348793,18.4678576 L19.2775338,24.8339524 C19.0343522,25.2142075 19.1379144,25.7189333 19.5111879,25.9727011 L24.69462,29.4966262 C25.0754373,29.7555225 25.5940276,29.6566861 25.852924,29.2758688 C25.9247385,29.170235 25.9713229,29.0495135 25.9890823,28.9230207 L28.3146553,12.3588907 C28.378679,11.9028753 28.0609069,11.4813002 27.6048915,11.4172765 C27.4321681,11.3930265 27.2561886,11.4235529 27.1017236,11.5045591 Z"/>
  </g>
</svg>
