<svg t="1737445346693" class="icon" viewBox="0 0 1024 1024" version="1.1" xmlns="http://www.w3.org/2000/svg" p-id="18057" width="200" height="200"><path d="M426.7 469.3H256c-117.8 0-213.3-95.5-213.3-213.3 0-117.8 95.5-213.3 213.3-213.3 117.8 0 213.3 95.5 213.3 213.3v170.7c0 23.5-19.1 42.6-42.6 42.6zM768 469.3H597.3c-23.6 0-42.7-19.1-42.7-42.7V256c0-117.8 95.5-213.3 213.3-213.3 117.8 0 213.3 95.5 213.3 213.3 0.1 117.8-95.4 213.3-213.2 213.3zM256 981.3c-117.8 0-213.3-95.5-213.3-213.3 0-117.8 95.5-213.3 213.3-213.3h170.7c23.6 0 42.7 19.1 42.7 42.7V768c-0.1 117.8-95.6 213.3-213.4 213.3zM768 981.3c-117.8 0-213.3-95.5-213.3-213.3V597.3c0-23.6 19.1-42.7 42.7-42.7H768c117.8 0 213.3 95.5 213.3 213.3 0 117.9-95.5 213.4-213.3 213.4z" p-id="18058" fill="#1296db"></path></svg>